<?xml version="1.0" encoding="utf-8"?>
<!-- Generator: Adobe Illustrator 24.1.2, SVG Export Plug-In . SVG Version: 6.00 Build 0)  -->
<svg version="1.1" id="Layer_1" xmlns="http://www.w3.org/2000/svg" xmlns:xlink="http://www.w3.org/1999/xlink" x="0px" y="0px"
	 viewBox="0 0 101 101" style="enable-background:new 0 0 101 101;" xml:space="preserve">
<style type="text/css">
	.st0{fill-rule:evenodd;clip-rule:evenodd;fill:#0C0C0C;}
	.st1{fill-rule:evenodd;clip-rule:evenodd;fill:#ED1C24;}
	.st2{fill:#ED1C24;}
	.st3{fill:#FFFFFF;}
	.st4{font-family:'Poppins-SemiBold';}
	.st5{font-size:19.9602px;}
</style>
<g>
	<path class="st0" d="M32.24,31.53c-1.37,0.12-2.44,1.27-2.44,2.66v21.42c0,1.49,1.19,2.68,2.68,2.68h37.49
		c1.49,0,2.69-1.19,2.69-2.68v-6.03l-1.93,0.97l-2.4-4.75l4.32-2.19v-4.87l-3.13,0.18l-0.29-5.31l3.31-0.19
		c-0.32-1.03-1.22-1.79-2.32-1.88h-9.92l-0.69-3.5c-0.19-0.99-1.05-1.71-2.03-1.71h-6.38h-6.33c-0.99,0-1.84,0.72-2.03,1.71
		l-0.69,3.5H32.24z M51.22,35.18c1.31,0,2.57,0.27,3.72,0.74l0,0c1.19,0.5,2.27,1.22,3.16,2.12l0,0l0,0c0.9,0.9,1.62,1.97,2.1,3.16
		l0.01-0.01c0.47,1.16,0.74,2.41,0.74,3.74c0,1.31-0.27,2.56-0.74,3.72h-0.01c-0.49,1.19-1.21,2.25-2.1,3.15l0,0v0.02
		c-0.9,0.88-1.97,1.6-3.16,2.1l0,0c-1.15,0.47-2.41,0.74-3.72,0.74c-1.31,0-2.57-0.27-3.72-0.74l0,0c-1.19-0.5-2.27-1.22-3.15-2.1
		l-0.02-0.02l0,0c-0.88-0.9-1.62-1.96-2.1-3.15l0,0c-0.48-1.16-0.75-2.41-0.75-3.72c0-1.32,0.27-2.57,0.75-3.74v0.01
		c0.49-1.19,1.22-2.27,2.1-3.16l0,0h0.02c0.88-0.9,1.96-1.62,3.15-2.12l0,0C48.64,35.44,49.91,35.18,51.22,35.18L51.22,35.18z
		 M35.76,33.69c1.01,0,1.84,0.82,1.84,1.84s-0.82,1.82-1.84,1.82c-1,0-1.82-0.81-1.82-1.82S34.76,33.69,35.76,33.69L35.76,33.69z
		 M55.87,40.27c-0.62-0.6-1.34-1.1-2.13-1.43c-0.76-0.32-1.62-0.5-2.52-0.5c-0.9,0-1.75,0.18-2.52,0.5
		c-0.8,0.32-1.52,0.82-2.12,1.43c-0.62,0.62-1.1,1.34-1.44,2.13c-0.31,0.76-0.48,1.62-0.48,2.52c0,0.9,0.18,1.74,0.48,2.52
		c0.34,0.8,0.82,1.52,1.44,2.12c0.6,0.62,1.32,1.1,2.12,1.43c0.76,0.32,1.62,0.5,2.52,0.5c0.9,0,1.75-0.18,2.52-0.5
		c0.79-0.32,1.51-0.81,2.13-1.43c0.6-0.6,1.1-1.32,1.43-2.12c0.32-0.78,0.5-1.62,0.5-2.52c0-0.9-0.18-1.75-0.5-2.52
		C56.97,41.61,56.47,40.89,55.87,40.27L55.87,40.27z"/>
	<polygon class="st1" points="69.03,46.04 74.32,43.36 76.23,47.15 70.96,49.83 	"/>
	<polygon class="st1" points="69.79,34.11 75.68,33.77 75.92,38 70.02,38.34 	"/>
	
		<rect x="76.43" y="40.08" transform="matrix(0.9983 -0.0586 0.0586 0.9983 -2.2897 4.6566)" class="st1" width="3.51" height="2.52"/>
	<polygon class="st1" points="79.17,44.99 82.67,44.8 82.82,47.3 79.32,47.51 	"/>
	<polygon class="st1" points="75.18,49.11 78.69,48.92 78.82,51.42 75.33,51.63 	"/>
	
		<rect x="80.34" y="35.4" transform="matrix(0.8802 -0.4747 0.4747 0.8802 -7.5072 43.2095)" class="st1" width="2.98" height="2.14"/>
	
		<rect x="84.39" y="40.69" transform="matrix(0.2804 -0.9599 0.9599 0.2804 21.0056 112.3985)" class="st1" width="2.15" height="2.99"/>
	<polygon class="st1" points="83.41,48.92 86.28,49.74 85.67,51.8 82.82,50.97 	"/>
	<polygon class="st1" points="87.91,45.74 90.32,45.01 90.87,46.74 88.45,47.48 	"/>
	<polygon class="st1" points="87.2,37.65 89.62,36.9 90.15,38.64 87.73,39.37 	"/>
	<polygon class="st1" points="90.84,42.02 92.6,41.48 93,42.74 91.23,43.28 	"/>
	<path class="st2" d="M80.32,34.71c-1.16-5.88-4.05-11.15-8.14-15.23c-5.35-5.37-12.77-8.68-20.96-8.68
		c-8.18,0-15.59,3.31-20.96,8.68c-5.37,5.37-8.68,12.77-8.68,20.96c0,6.71,2.22,12.89,5.97,17.85h-1.94
		C22.07,53.25,20,47.08,20,40.45c0-8.62,3.49-16.43,9.14-22.08S42.6,9.21,51.22,9.21c8.62,0,16.43,3.5,22.08,9.15
		c4.19,4.19,7.19,9.56,8.47,15.58L80.32,34.71z"/>
	<g>
		<rect x="20.34" y="65.45" class="st1" width="61.78" height="15.55"/>
		<text transform="matrix(1.0252 0 0 1 20.3384 80.0386)" class="st3 st4 st5">CAMY</text>
	</g>
</g>
</svg>
